<?xml version="1.0" encoding="UTF-8"?>
<svg version="1.1" xmlns="http://www.w3.org/2000/svg" width="1024" height="1024">
<path d="M0 0 C337.92 0 675.84 0 1024 0 C1024 337.92 1024 675.84 1024 1024 C686.08 1024 348.16 1024 0 1024 C0 686.08 0 348.16 0 0 Z " fill="#112C56" transform="translate(0,0)"/>
<path d="M0 0 C3.99744272 0.00008041 7.99476874 -0.00673783 11.9921875 -0.02050781 C135.10159504 -0.43783741 135.10159504 -0.43783741 157.49267578 19.24780273 C168.93199279 31.50156949 175.43131017 48.91329121 182.47314453 63.92358398 C184.68275599 68.63021734 186.94479284 73.30856395 189.23095703 77.97827148 C189.88224166 79.31213532 190.53344633 80.6460382 191.18457031 81.97998047 C192.14555538 83.94846744 193.10818476 85.91604613 194.07659912 87.88088989 C194.97449151 89.70372103 195.86461417 91.53037315 196.75439453 93.35717773 C197.27090576 94.41001953 197.78741699 95.46286133 198.31958008 96.54760742 C199.43017578 99.18530273 199.43017578 99.18530273 199.43017578 102.18530273 C200.09017578 102.18530273 200.75017578 102.18530273 201.43017578 102.18530273 C201.51267578 101.36030273 201.59517578 100.53530273 201.68017578 99.68530273 C203.14648467 92.84252793 206.11314053 87.80272809 211.43017578 83.18530273 C215.93178076 80.93450024 222.11342653 81.95516906 227.05517578 81.93530273 C228.31458984 81.91467773 229.57400391 81.89405273 230.87158203 81.87280273 C239.24119787 81.83767318 245.83366777 82.32941546 252.74267578 87.43530273 C256.86080167 91.64919899 258.2494038 95.28719693 258.80517578 101.12280273 C258.5025082 107.38196832 256.80458267 112.28816637 252.11767578 116.56030273 C247.23527338 120.63466185 241.93488097 121.43763948 235.71923828 121.38061523 C234.47529297 121.37416992 233.23134766 121.36772461 231.94970703 121.36108398 C230.02191406 121.33594727 230.02191406 121.33594727 228.05517578 121.31030273 C226.74677734 121.3012793 225.43837891 121.29225586 224.09033203 121.28295898 C220.87009208 121.25945358 217.65022871 121.22659361 214.43017578 121.18530273 C214.43017578 121.84530273 214.43017578 122.50530273 214.43017578 123.18530273 C215.09017578 123.18530273 215.75017578 123.18530273 216.43017578 123.18530273 C217.80517578 124.51342773 217.80517578 124.51342773 219.43017578 126.43530273 C220.04763672 127.16491211 220.66509766 127.89452148 221.30126953 128.64624023 C222.00380859 129.48413086 222.70634766 130.32202148 223.43017578 131.18530273 C224.65414062 132.59682617 224.65414062 132.59682617 225.90283203 134.03686523 C237.11176924 147.12241184 245.50442627 161.48167158 245.58407593 179.18659973 C245.58845818 179.87943123 245.59284044 180.57226273 245.59735548 181.28608912 C245.61068042 183.60121072 245.61690801 185.91629432 245.62304688 188.23144531 C245.63095263 189.89405995 245.63922188 191.55667289 245.64782715 193.21928406 C245.67398596 198.67278417 245.68934569 204.12629173 245.70361328 209.57983398 C245.70897493 211.45959668 245.71435244 213.33935933 245.71974564 215.21912193 C245.74136269 223.03847623 245.76009948 230.8578285 245.77136803 238.67720509 C245.7876107 249.87302701 245.82080968 261.06850215 245.87776887 272.26419336 C245.91648354 280.1429103 245.93600235 288.02153452 245.94128859 295.90034407 C245.94493908 300.60338114 245.95692886 305.3060478 245.98939133 310.0089817 C246.01949999 314.43404655 246.02577394 318.85851733 246.01400757 323.2836628 C246.01378709 324.90417446 246.02207112 326.52471395 246.03966141 328.14513016 C246.20239707 344.00417677 246.20239707 344.00417677 240.43017578 350.18530273 C234.03769015 356.41387848 227.08109008 356.50230511 218.62548828 356.52124023 C217.5875412 356.52789703 216.54959412 356.53455383 215.48019409 356.54141235 C213.28987392 356.5515132 211.09952313 356.55623017 208.90917969 356.5559082 C205.57321043 356.5602791 202.23856733 356.59662099 198.90283203 356.63452148 C196.76872194 356.64039075 194.63460561 356.64435941 192.50048828 356.64624023 C191.51065948 356.66061127 190.52083069 356.6749823 189.50100708 356.68978882 C182.08117669 356.6412714 176.52180131 355.19337081 171.11767578 349.93530273 C164.36861848 338.93683898 166.06351526 331.11877134 165.43017578 317.18530273 C64.78017578 317.18530273 -35.86982422 317.18530273 -139.56982422 317.18530273 C-140.81028546 319.66622521 -140.69559095 321.35756637 -140.71044922 324.13061523 C-140.72978516 325.12577148 -140.74912109 326.12092773 -140.76904297 327.14624023 C-140.80251795 329.23198878 -140.82109661 331.31803725 -140.82373047 333.40405273 C-140.98982681 340.20526089 -142.02202437 344.98165319 -146.56982422 350.18530273 C-151.50736568 354.50401613 -155.53200619 356.2891575 -162.13549805 356.34643555 C-163.03355667 356.35604309 -163.9316153 356.36565063 -164.85688782 356.37554932 C-166.3022718 356.38192413 -166.3022718 356.38192413 -167.77685547 356.38842773 C-169.27499031 356.39697784 -169.27499031 356.39697784 -170.8033905 356.40570068 C-172.91570988 356.41514002 -175.02804391 356.42168043 -177.14038086 356.42553711 C-180.35996401 356.43523538 -183.57890663 356.46626623 -186.79833984 356.49780273 C-188.85367461 356.504334 -190.90901392 356.50958399 -192.96435547 356.51342773 C-193.9218721 356.52577454 -194.87938873 356.53812134 -195.86592102 356.55084229 C-203.44063049 356.52579317 -209.40979328 355.06502277 -215.22876644 349.78853989 C-221.65349853 342.10776032 -221.13787892 332.11135664 -221.0715332 322.67651367 C-221.07532316 321.13126637 -221.08082875 319.58602248 -221.08790588 318.04078674 C-221.10179439 313.86893807 -221.09073542 309.69750493 -221.07419467 305.52567959 C-221.06026575 301.1400215 -221.06681351 296.75438565 -221.07032776 292.36871338 C-221.07302486 285.00168225 -221.05960138 277.6348145 -221.03637695 270.26782227 C-221.00980994 261.78246987 -221.00800944 253.29739118 -221.01976532 244.81201148 C-221.03059477 236.61501848 -221.02431315 228.41812329 -221.01021004 220.221138 C-221.00449086 216.74940901 -221.00450065 213.27775257 -221.00927544 209.80602264 C-221.0140945 205.70513367 -221.00374267 201.6045391 -220.98232079 197.50370598 C-220.97681766 196.00990987 -220.97622694 194.51608509 -220.98127365 193.02228737 C-221.05271797 168.81525494 -213.26528627 148.73317394 -196.56982422 131.18530273 C-195.22860143 129.67142254 -193.89455786 128.15113273 -192.56982422 126.62280273 C-189.66213191 123.27761043 -189.66213191 123.27761043 -188.56982422 122.18530273 C-189.82472656 122.17128418 -189.82472656 122.17128418 -191.10498047 122.15698242 C-194.24398437 122.11266094 -197.3820529 122.05091079 -200.52050781 121.9777832 C-202.53280962 121.93607001 -204.54548817 121.91401742 -206.55810547 121.89233398 C-214.4896062 121.69305005 -221.01799231 121.44591767 -227.07714844 115.77441406 C-231.91422746 110.37522535 -233.00018569 105.66760786 -232.81201172 98.61108398 C-232.20319056 92.51305272 -228.9290026 89.25748163 -224.48388672 85.48217773 C-218.29907555 81.29165262 -211.86534268 81.84654634 -204.64990234 81.86962891 C-202.57580217 81.87279361 -200.50312389 81.84928435 -198.42919922 81.82397461 C-197.11435547 81.82333008 -195.79951172 81.82268555 -194.44482422 81.82202148 C-193.24599609 81.81904053 -192.04716797 81.81605957 -190.81201172 81.81298828 C-187.2538093 82.2215921 -185.41929436 83.05735734 -182.56982422 85.18530273 C-178.72223433 90.05137229 -175.56982422 95.87987199 -175.56982422 102.18530273 C-174.90982422 102.18530273 -174.24982422 102.18530273 -173.56982422 102.18530273 C-173.29078751 101.30413284 -173.01175079 100.42296295 -172.72425842 99.51509094 C-171.68245172 96.51015946 -170.49802815 93.76012406 -169.09887695 90.90869141 C-168.36186806 89.40002754 -168.36186806 89.40002754 -167.60997009 87.86088562 C-167.07980789 86.78587296 -166.54964569 85.71086029 -166.00341797 84.60327148 C-165.45049576 83.47568924 -164.89757355 82.34810699 -164.32789612 81.18635559 C-163.15539275 78.79747104 -161.98144475 76.40936629 -160.80493164 74.02246094 C-159.03268296 70.42654879 -157.26898896 66.82647173 -155.50537109 63.22631836 C-150.59364028 53.21881426 -145.66999294 43.21665945 -140.50341797 33.33764648 C-140.16249619 32.67838669 -139.8215744 32.01912689 -139.47032166 31.33988953 C-133.15834214 19.43632214 -123.45530351 11.52378288 -110.88232422 6.87280273 C-95.20873286 2.18667809 -77.79826141 2.14626695 -61.56982422 1.18530273 C-60.51003357 1.11854843 -60.51003357 1.11854843 -59.42883301 1.05044556 C-39.64276448 -0.15547437 -19.81410313 -0.00209004 0 0 Z " fill="#FDFDFD" transform="translate(499.56982421875,445.814697265625)"/>
<path d="M0 0 C2.27169819 -0.00323089 4.54339619 -0.00659616 6.81509399 -0.01008606 C11.5531665 -0.01602382 16.29122092 -0.01793183 21.02929688 -0.01733398 C25.79528643 -0.01725324 30.56117881 -0.02412264 35.32714844 -0.0378418 C64.5677879 -0.12075558 93.66739902 0.28486478 122.8515625 2.16796875 C124.12121857 2.24808197 125.39087463 2.32819519 126.69900513 2.41073608 C155.2970256 4.24337497 155.2970256 4.24337497 166.2265625 15.41796875 C169.2296373 19.05235949 171.40200677 22.90184227 173.46484375 27.1171875 C173.80561447 27.80650864 174.14638519 28.49582977 174.4974823 29.20603943 C179.10458438 38.61255999 183.37187442 48.17753471 187.6640625 57.73046875 C188.51729653 59.62187185 189.37081081 61.51314855 190.22460938 63.40429688 C194.43779518 72.74763272 194.43779518 72.74763272 195.89981079 76.03103638 C196.5225363 77.42921859 197.15088348 78.8249139 197.78549194 80.21774292 C199.87963182 84.90131023 199.87963182 84.90131023 199.6015625 87.54296875 C198.8515625 89.16796875 198.8515625 89.16796875 197.8515625 90.16796875 C196.12091485 90.26531174 194.38625219 90.29168352 192.65286922 90.29101658 C190.95172731 90.29400315 190.95172731 90.29400315 189.21621889 90.29705006 C187.32375086 90.2926808 187.32375086 90.2926808 185.39305115 90.28822327 C184.05162777 90.28865885 182.71020447 90.28953352 181.36878163 90.29081243 C177.66551872 90.29305991 173.96228447 90.28903268 170.25902522 90.28403437 C166.27195713 90.27973365 162.28489079 90.28117602 158.29782104 90.28193665 C151.38426261 90.28246212 144.47071358 90.27931286 137.55715752 90.27369881 C127.56119877 90.265587 117.56524458 90.26296892 107.5692829 90.26171082 C91.35323354 90.25951979 75.13718921 90.25285834 58.92114258 90.2434082 C43.16463242 90.23423539 27.40812362 90.22715392 11.65161133 90.22290039 C10.68110049 90.22263767 9.71058965 90.22237494 8.71066939 90.22210426 C3.84211688 90.22079926 -1.02643565 90.21953555 -5.89498818 90.21829236 C-46.31280811 90.20791817 -86.73062252 90.19029849 -127.1484375 90.16796875 C-128.42198559 85.1162122 -127.22508737 82.05149038 -125.1328125 77.4296875 C-124.64241989 76.30494774 -124.64241989 76.30494774 -124.14212036 75.15748596 C-123.07405757 72.71744097 -121.9869224 70.28646404 -120.8984375 67.85546875 C-120.15813798 66.17909881 -119.41872131 64.50233873 -118.68017578 62.82519531 C-116.85315832 58.68657027 -115.00922209 54.55574977 -113.15905762 50.4274292 C-112.23556756 48.36276689 -111.31775916 46.29573445 -110.40332031 44.22705078 C-108.95407905 40.9524189 -107.49271666 37.68365061 -106.0234375 34.41796875 C-105.6119043 33.49330811 -105.20037109 32.56864746 -104.77636719 31.6159668 C-99.94773533 21.05849972 -94.23557688 12.04583747 -83.8359375 6.35546875 C-75.57306663 3.69454423 -66.95586346 2.81101429 -58.3359375 2.10546875 C-57.47291016 2.02748047 -56.60988281 1.94949219 -55.72070312 1.86914062 C-37.178849 0.29249667 -18.59772484 0.00638256 0 0 Z " fill="#122F5A" transform="translate(477.1484375,466.83203125)"/>
<path d="M0 0 C1.17255291 -0.00583219 2.34510583 -0.01166439 3.55319065 -0.01767331 C5.50242053 -0.01200433 5.50242053 -0.01200433 7.49102879 -0.00622082 C8.87655184 -0.00923877 10.26207323 -0.01312645 11.64759165 -0.01781338 C15.46823837 -0.02814817 19.28879184 -0.02589772 23.10944641 -0.02163279 C27.22471861 -0.01917545 31.33996778 -0.02816733 35.45523167 -0.03567028 C43.52258172 -0.04844704 51.58989854 -0.05020728 59.65725701 -0.04787002 C66.21182211 -0.04609002 72.76637709 -0.04782965 79.32094097 -0.05209446 C80.2523252 -0.05268965 81.18370943 -0.05328484 82.14331742 -0.05389806 C84.03516916 -0.05510976 85.9270209 -0.05632389 87.81887264 -0.05754044 C105.57752002 -0.06842744 123.33614844 -0.066248 141.0947969 -0.06015559 C157.355981 -0.05498536 173.61710522 -0.06624262 189.87827747 -0.08525381 C206.558474 -0.10460602 223.23864217 -0.11289282 239.91885 -0.10913056 C249.29023938 -0.10721453 258.66157778 -0.10974498 268.03295803 -0.1238451 C276.01080574 -0.1357266 283.98857109 -0.13720029 291.96641987 -0.12505493 C296.03966995 -0.11914341 300.11276915 -0.11812908 304.18600941 -0.13005733 C307.9110851 -0.14083956 311.63588256 -0.1379052 315.36094481 -0.12379565 C317.35488914 -0.11985836 319.34884546 -0.13075806 321.34276146 -0.14209253 C322.51792212 -0.13488598 323.69308278 -0.12767944 324.90385437 -0.12025452 C325.92231931 -0.12030953 326.94078425 -0.12036455 327.99011177 -0.12042123 C330.51484776 0.25447559 330.51484776 0.25447559 332.35772234 1.60992748 C333.51484776 3.25447559 333.51484776 3.25447559 333.63984776 5.94197559 C330.92284096 13.94205116 323.7937058 19.40497033 316.51484776 23.25447559 C309.71829551 26.36261292 303.92873963 26.68670409 296.51014805 26.6556139 C294.71787387 26.6658089 294.71787387 26.6658089 292.88939214 26.67620987 C289.58980979 26.69186606 286.2907196 26.69417327 282.99113536 26.69062674 C279.42587891 26.69001257 275.86069464 26.70659147 272.29547215 26.72079945 C265.31679806 26.74567452 258.33820002 26.75396195 251.3594853 26.75563658 C245.68423392 26.7570642 240.00900754 26.76323913 234.33376408 26.77273846 C218.22790871 26.7991463 202.12211321 26.81299847 186.01623604 26.81074703 C185.14872224 26.81062717 184.28120844 26.8105073 183.38740635 26.8103838 C182.51882796 26.81026115 181.65024957 26.81013851 180.75535062 26.81001215 C166.6830011 26.80879314 152.61089254 26.83749532 138.53861269 26.8797989 C124.0741256 26.92293688 109.6097559 26.94360688 95.14520288 26.94101757 C87.03052893 26.94002325 78.91610759 26.94819418 70.80149174 26.98055172 C63.89188571 27.00792858 56.98264679 27.01434251 50.07300988 26.99402345 C46.55129721 26.98425807 43.03028799 26.98394429 39.50864315 27.0100832 C35.68096625 27.03330393 31.85512066 27.01927289 28.02748203 26.99619007 C26.92784524 27.01162076 25.82820844 27.02705145 24.69524932 27.04294974 C13.1502881 26.88973726 4.57741995 21.81257835 -3.74296474 14.08650684 C-6.47070967 11.21809346 -7.45381248 9.70106722 -7.73515224 5.69197559 C-7.31989473 -0.01781517 -5.11542507 0.00435424 0 0 Z " fill="#11264D" transform="translate(349.48515224456787,708.7455244064331)"/>
<path d="M0 0 C68.31 0 136.62 0 207 0 C201.08375635 19.72081218 201.08375635 19.72081218 193 25 C188.5158517 26.80735073 184.73515481 27.25594056 179.91641235 27.27415466 C179.22680998 27.27939134 178.53720761 27.28462802 177.8267082 27.29002339 C175.52845551 27.3049603 173.2304267 27.30572713 170.93212891 27.30639648 C169.27921679 27.31402213 167.62630821 27.32245033 165.97340393 27.33161926 C161.49195314 27.35352891 157.01057057 27.3623582 152.52907228 27.36744571 C149.72720186 27.37109292 146.9253492 27.37733482 144.12348557 27.3844471 C134.34305794 27.40892759 124.56268326 27.42199084 114.78222656 27.42553711 C105.67420499 27.42917313 96.56652022 27.45907681 87.45860159 27.50094169 C79.63080781 27.53565755 71.80312561 27.55108576 63.97525537 27.55178314 C59.30354914 27.5525754 54.63218633 27.56129066 49.96055984 27.58978081 C45.56582657 27.61598435 41.17172095 27.61815411 36.77694511 27.60212517 C35.1677291 27.60031259 33.5584768 27.6069842 31.94933891 27.62294388 C16.19649941 27.76961025 16.19649941 27.76961025 10 22 C6.49416293 18.38684139 4.69209597 14.49483434 2.75 9.875 C2.481875 9.25496094 2.21375 8.63492188 1.9375 7.99609375 C0.74172613 5.15918126 0 3.11050544 0 0 Z " fill="#112952" transform="translate(409,634)"/>
<path d="M0 0 C5.49103563 3.66069042 8.48992601 7.50159173 10 14 C10.33683946 17.02288118 10.45348022 20.02227729 10.5 23.0625 C10.51853027 23.81813232 10.53706055 24.57376465 10.55615234 25.35229492 C10.48582919 31.69309915 8.66729531 36.76228346 4.61523438 41.6809082 C-3.30579823 49.37565979 -14.46742949 50.61451197 -25.01171875 50.53125 C-26.65222954 50.53699036 -26.65222954 50.53699036 -28.32588196 50.54284668 C-30.6174106 50.54554718 -32.90897105 50.53831794 -35.20043945 50.52148438 C-38.68966674 50.49998665 -42.17684988 50.52138338 -45.66601562 50.546875 C-47.9062545 50.54423261 -50.14649211 50.53910946 -52.38671875 50.53125 C-53.41818527 50.53934692 -54.44965179 50.54744385 -55.51237488 50.55578613 C-62.0852573 50.4713615 -67.31730605 49.42343456 -73 46 C-77.63575033 41.21938247 -77.40646687 35.64137135 -77.3359375 29.30078125 C-76.77839326 23.8225849 -74.71369969 20.22088564 -70.45800781 16.73803711 C-64.04911126 12.54479275 -56.99781127 10.37793717 -49.75 8.0625 C-48.40989514 7.62701752 -47.06997138 7.19097742 -45.73022461 6.75439453 C-41.82521752 5.48675703 -37.91305295 4.24257223 -34 3 C-32.39825928 2.48493896 -32.39825928 2.48493896 -30.76416016 1.95947266 C-28.03430246 1.08437256 -25.30024056 0.22507108 -22.5625 -0.625 C-21.78422852 -0.87241943 -21.00595703 -1.11983887 -20.20410156 -1.37475586 C-12.76737459 -3.62013248 -7.04199485 -3.71305183 0 0 Z " fill="#122D57" transform="translate(711,611)"/>
<path d="M0 0 C0.93684631 0.29651459 1.87369263 0.59302917 2.83892822 0.89852905 C4.81401288 1.5268269 6.78728157 2.16085899 8.75878906 2.80029297 C11.7379629 3.76448483 14.7236655 4.70577289 17.7109375 5.64453125 C46.12565037 14.6820797 46.12565037 14.6820797 52.015625 25.1484375 C52.38816406 25.8084375 52.76070313 26.4684375 53.14453125 27.1484375 C55.07606394 31.58316727 54.44233517 35.93942534 52.890625 40.3359375 C49.31037344 45.70631484 45.21388266 48.57984201 39.015625 50.1484375 C35.39948535 50.4539975 31.79561453 50.47630167 28.16796875 50.484375 C27.11968399 50.4910318 26.07139923 50.4976886 24.99134827 50.50454712 C22.77493029 50.51465313 20.55848201 50.51936478 18.34204102 50.51904297 C14.988569 50.52339154 11.63644045 50.55966621 8.28320312 50.59765625 C-19.60847647 50.74537094 -19.60847647 50.74537094 -28.63525391 41.82958984 C-33.21219611 36.1262196 -34.68905772 30.48457403 -34.546875 23.2734375 C-34.53591797 22.48549805 -34.52496094 21.69755859 -34.51367188 20.88574219 C-34.23451733 13.35787473 -32.58447198 7.54541617 -26.9765625 2.25390625 C-18.08201344 -4.75342299 -10.14475586 -3.30013892 0 0 Z " fill="#122850" transform="translate(337.984375,610.8515625)"/>
<path d="M0 0 C4.29 0 8.58 0 13 0 C13 22.77 13 45.54 13 69 C8.71 69 4.42 69 0 69 C-0.33 67.35 -0.66 65.7 -1 64 C-1.70125 64.61875 -2.4025 65.2375 -3.125 65.875 C-8.27910659 69.68455705 -13.64348649 70.91468956 -20 70 C-28.26047256 67.65789658 -32.44884157 63.08185348 -36.875 56 C-39.67432957 48.57423354 -39.04841372 38.89606292 -36.5 31.5 C-33.64477073 25.4250441 -29.02573836 21.48068047 -23.0625 18.5625 C-15.35650066 17.14711237 -9.65639445 17.62625401 -3 22 C-2.34 22.66 -1.68 23.32 -1 24 C-0.67 16.08 -0.34 8.16 0 0 Z " fill="#FCFCFD" transform="translate(465,238)"/>
<path d="M0 0 C5.61 0 11.22 0 17 0 C17.55461914 1.54792236 18.10923828 3.09584473 18.68066406 4.69067383 C20.75283265 10.47380731 22.82534146 16.25681882 24.89794922 22.03979492 C25.79227528 24.53519455 26.68645391 27.03064687 27.58056641 29.52612305 C28.8711773 33.12817921 30.16212088 36.730116 31.453125 40.33203125 C32.04556 41.98583549 32.04556 41.98583549 32.64996338 43.67304993 C33.03005554 44.73331894 33.41014771 45.79358795 33.80175781 46.88598633 C34.16579712 47.90536285 34.52983643 48.92473938 34.90490723 49.9750061 C35.64523715 52.02003239 36.40148011 54.05935688 37.17224121 56.09310913 C37.53918091 57.06615997 37.90612061 58.03921082 38.28417969 59.04174805 C38.77951202 60.33208199 38.77951202 60.33208199 39.28485107 61.64848328 C40 64 40 64 40 68 C35.38 68 30.76 68 26 68 C22.125 58.375 22.125 58.375 21 55 C12.75 55 4.5 55 -4 55 C-4.639375 56.959375 -5.27875 58.91875 -5.9375 60.9375 C-7.875 66.875 -7.875 66.875 -9 68 C-11.53049402 68.07313567 -14.03304837 68.09247527 -16.5625 68.0625 C-17.27341797 68.05798828 -17.98433594 68.05347656 -18.71679688 68.04882812 C-20.47790013 68.03700864 -22.23896036 68.01907263 -24 68 C-16.25008007 45.2424281 -8.16089569 22.61297178 0 0 Z " fill="#FBFCFC" transform="translate(172,239)"/>
<path d="M0 0 C2.23860964 1.238575 3.66993191 2.29493191 5.5 4.125 C5.83 2.475 6.16 0.825 6.5 -0.875 C10.79 -0.875 15.08 -0.875 19.5 -0.875 C19.5 15.625 19.5 32.125 19.5 49.125 C15.21 49.125 10.92 49.125 6.5 49.125 C6.17 47.475 5.84 45.825 5.5 44.125 C4.448125 45.053125 4.448125 45.053125 3.375 46 C-1.16834996 49.35812823 -5.58861 50.66107588 -11.28125 50.5078125 C-16.89853246 49.53863348 -21.89226821 46.6915079 -25.9375 42.75 C-31.007092 34.23308543 -32.91632489 25.50669329 -31.0390625 15.72265625 C-28.9816524 8.64274503 -25.17373464 3.39899113 -18.75 -0.3125 C-12.46485239 -3.08324255 -6.1714557 -2.97392611 0 0 Z " fill="#FBFCFC" transform="translate(345.5,257.875)"/>
<path d="M0 0 C35.36842105 0 35.36842105 0 41.875 5.375 C47.67839456 12.54389916 48.80302314 17.86847967 48 27 C46.30037922 33.18416235 42.30842568 37.5346244 37 41 C32.33974004 43.51722071 27.83651258 43.2298452 22.6875 43.125 C19.820625 43.08375 16.95375 43.0425 14 43 C14 51.25 14 59.5 14 68 C9.38 68 4.76 68 0 68 C0 45.56 0 23.12 0 0 Z " fill="#FDFDFD" transform="translate(600,239)"/>
<path d="M0 0 C5.53394762 5.78549069 8.04477878 11.45905954 8.25 19.5 C7.88944325 27.58406186 5.99302025 33.33181329 0.49609375 39.3359375 C-5.59242214 44.70254882 -12.69665154 46.20965394 -20.59765625 46.08203125 C-28.79283346 45.44234879 -34.87369653 42.06442385 -40.25 35.875 C-45.36861812 28.75219056 -45.14686645 20.31115 -44.25 11.875 C-42.56550424 5.14754506 -37.81484292 0.74174747 -32.25 -3.125 C-21.43333482 -9.47979079 -9.82585544 -6.42459778 0 0 Z " fill="#FAFBFC" transform="translate(564.25,262.125)"/>
<path d="M0 0 C4.91023224 3.92818579 8.85752105 9.48468015 10.8125 15.5 C11.53209849 25.09464649 10.41411543 33.37240327 4 41 C-3.67992373 46.92028382 -11.34686434 49.07406238 -21 48 C-27.99296513 46.04950576 -34.1510783 42.08794978 -38.3203125 36.10546875 C-42.20656654 28.78137459 -42.50420709 19.95855877 -40.1171875 12.08984375 C-36.81720101 4.84517142 -32.14937984 -0.01921883 -24.6875 -2.875 C-15.80951464 -5.38792128 -8.0992223 -4.41118357 0 0 Z " fill="#FAFBFC" transform="translate(691,260)"/>
<path d="M0 0 C5.62539965 3.70031411 8.7654876 7.65398478 11 14 C11 18.29 11 22.58 11 27 C-0.55 27 -12.1 27 -24 27 C-21.44801032 32.7583436 -21.44801032 32.7583436 -17 36 C-13.29586967 36.61275479 -9.71340699 36.54165485 -6 36 C-5.175 35.29875 -4.35 34.5975 -3.5 33.875 C-1 32 -1 32 1.73828125 32.1796875 C4.52334725 32.69635794 7.25843477 33.28940166 10 34 C8.92410887 39.02082526 6.96997425 41.58091766 3.0546875 44.67578125 C-2.68883963 48.37740805 -9.22668977 49.94904347 -16 49 C-22.61946311 47.52008537 -29.07674423 44.90071942 -33.25 39.33203125 C-37.59118256 32.10204705 -38.92614684 25.32374472 -38 17 C-36.05455907 10.02515213 -32.09170553 3.70116498 -26 -0.3203125 C-17.76818198 -4.52441956 -8.10508871 -4.5505265 0 0 Z " fill="#FAFBFC" transform="translate(276,259)"/>
<path d="M0 0 C5.18172492 4.07947203 8.33571135 8.28849713 10.78125 14.40234375 C10.78125 18.69234375 10.78125 22.98234375 10.78125 27.40234375 C-0.43875 27.73234375 -11.65875 28.06234375 -23.21875 28.40234375 C-20.88026858 34.31965393 -20.88026858 34.31965393 -17.21875 36.40234375 C-13.52019339 36.89472126 -9.91899858 36.87855917 -6.21875 36.40234375 C-4.540452 35.08368103 -2.87260233 33.75153907 -1.21875 32.40234375 C2.61167955 32.26770651 6.33636962 32.67990356 9.78125 34.40234375 C8.7051831 39.42398928 6.75158739 41.98630122 2.83203125 45.078125 C-3.20007792 48.97314406 -10.12136553 50.47230121 -17.21875 49.40234375 C-26.32773537 46.86980073 -31.30431484 42.47605866 -36.21875 34.40234375 C-38.51733398 27.50659182 -38.74086864 16.46409479 -35.65625 9.71484375 C-32.3431748 4.5119158 -27.15872764 0.05973938 -21.36328125 -2.125 C-14.25856088 -3.69088555 -6.37857763 -3.79741592 0 0 Z " fill="#FAFBFC" transform="translate(851.21875,258.59765625)"/>
<path d="M0 0 C5.28654503 2.89263785 8.55553342 6.02078167 10.3125 11.8125 C10.57401002 14.74944789 10.5455776 17.66673779 10.5078125 20.61328125 C10.5049826 21.44965622 10.50215271 22.28603119 10.49923706 23.14775085 C10.4880832 25.80698226 10.46298763 28.46587118 10.4375 31.125 C10.42746399 32.93293783 10.41833923 34.74088096 10.41015625 36.54882812 C10.38815959 40.97018312 10.35366294 45.39128358 10.3125 49.8125 C6.0225 49.8125 1.7325 49.8125 -2.6875 49.8125 C-2.6968457 48.90483887 -2.70619141 47.99717773 -2.71582031 47.06201172 C-2.76000484 43.67323186 -2.82169111 40.28568774 -2.89501953 36.89746094 C-2.9231311 35.43501295 -2.94439431 33.9724158 -2.95849609 32.50976562 C-2.98006419 30.39896831 -3.02677656 28.28994571 -3.078125 26.1796875 C-3.09907227 24.91237793 -3.12001953 23.64506836 -3.14160156 22.33935547 C-3.78146537 18.20542317 -5.0214314 16.00903132 -7.6875 12.8125 C-11.08719811 11.4815684 -11.08719811 11.4815684 -14.6875 11.8125 C-17.48939446 13.57891172 -19.20274911 14.84299822 -20.6875 17.8125 C-20.84358023 20.21810273 -20.94554458 22.59952772 -21.00390625 25.0078125 C-21.02468735 25.71525604 -21.04546844 26.42269958 -21.06687927 27.15158081 C-21.13231078 29.41345425 -21.19122974 31.67544462 -21.25 33.9375 C-21.29319133 35.47006422 -21.33680582 37.00261657 -21.38085938 38.53515625 C-21.48878289 42.29415268 -21.58790283 46.05323675 -21.6875 49.8125 C-26.3075 49.8125 -30.9275 49.8125 -35.6875 49.8125 C-35.6875 33.3125 -35.6875 16.8125 -35.6875 -0.1875 C-31.0675 -0.1875 -26.4475 -0.1875 -21.6875 -0.1875 C-21.3575 1.4625 -21.0275 3.1125 -20.6875 4.8125 C-19.759375 4.008125 -18.83125 3.20375 -17.875 2.375 C-12.52357242 -2.2629039 -6.46214542 -2.08102988 0 0 Z " fill="#F8FAFB" transform="translate(743.6875,257.1875)"/>
<path d="M0 0 C5.54479895 2.30946598 8.41306748 5.95487884 10.83203125 11.3671875 C11.44258442 14.5016334 11.4215216 17.49597496 11.3203125 20.6796875 C11.31323776 21.53401367 11.30616302 22.38833984 11.2988739 23.26855469 C11.27112018 25.96903005 11.20842274 28.66735024 11.14453125 31.3671875 C11.11942357 33.20960525 11.09661475 35.05205584 11.07617188 36.89453125 C11.02135664 41.38623369 10.93522153 45.87634658 10.83203125 50.3671875 C6.54203125 50.3671875 2.25203125 50.3671875 -2.16796875 50.3671875 C-2.18778809 49.41875977 -2.20760742 48.47033203 -2.22802734 47.49316406 C-2.30622636 43.96686386 -2.39292241 40.44098389 -2.48535156 36.91503906 C-2.52358141 35.39038092 -2.55844475 33.86563443 -2.58984375 32.34082031 C-2.63562537 30.14616369 -2.69359641 27.9521121 -2.75390625 25.7578125 C-2.76545746 25.0784967 -2.77700867 24.39918091 -2.78890991 23.69927979 C-2.89999681 20.1191626 -3.15813486 17.38330186 -5.16796875 14.3671875 C-7.78364624 12.33277168 -9.30773437 12.3671875 -12.66796875 12.3671875 C-16.32235077 13.05765394 -16.32235077 13.05765394 -18.34863281 15.96923828 C-20.4338511 19.86377238 -20.70471504 22.34033829 -20.77734375 26.734375 C-20.79388 27.41396271 -20.81041626 28.09355042 -20.82745361 28.79373169 C-20.87565588 30.94331138 -20.89724003 33.09218531 -20.91796875 35.2421875 C-20.94615208 36.70836832 -20.9760828 38.17451665 -21.0078125 39.640625 C-21.08140376 43.21599379 -21.13114901 46.79122923 -21.16796875 50.3671875 C-25.45796875 50.3671875 -29.74796875 50.3671875 -34.16796875 50.3671875 C-34.16796875 33.8671875 -34.16796875 17.3671875 -34.16796875 0.3671875 C-29.87796875 0.3671875 -25.58796875 0.3671875 -21.16796875 0.3671875 C-20.83796875 2.0171875 -20.50796875 3.6671875 -20.16796875 5.3671875 C-19.35005859 4.7175 -19.35005859 4.7175 -18.515625 4.0546875 C-12.20039308 -0.60886838 -7.64349452 -2.23107408 0 0 Z " fill="#FDFDFD" transform="translate(409.16796875,256.6328125)"/>
<path d="M0 0 C3.28539206 2.37376976 6.114948 5.04455765 8.16796875 8.56640625 C8.16796875 9.55640625 8.16796875 10.54640625 8.16796875 11.56640625 C6.54470005 12.23727745 4.91929297 12.90297654 3.29296875 13.56640625 C2.38804687 13.93765625 1.483125 14.30890625 0.55078125 14.69140625 C-1.83203125 15.56640625 -1.83203125 15.56640625 -3.83203125 15.56640625 C-5.18590061 13.91637797 -6.51881267 12.24896755 -7.83203125 10.56640625 C-11.57552413 8.69465981 -16.17547885 9.11868938 -20.14453125 10.19140625 C-23.37790654 12.82600834 -24.62751108 15.863914 -25.12109375 19.97265625 C-25.294461 25.20519497 -24.92240989 29.15157962 -21.83203125 33.56640625 C-18.89892991 35.95634068 -15.51302813 36.03393402 -11.7890625 35.96484375 C-8.53602078 35.30254783 -6.95333508 32.98233561 -4.83203125 30.56640625 C-1.37963424 29.13782818 0.9481319 29.86251255 4.41796875 31.00390625 C5.31 31.29136719 6.20203125 31.57882812 7.12109375 31.875 C7.7965625 32.10316406 8.47203125 32.33132813 9.16796875 32.56640625 C7.9338468 38.89128125 4.23283171 42.00390939 -0.83203125 45.56640625 C-7.32887639 49.32425558 -14.8114954 49.61966552 -22.06640625 48.09765625 C-28.80616394 45.90331654 -33.94555914 41.7414441 -37.20703125 35.44140625 C-40.47718943 28.36080289 -41.29848787 20.27484994 -38.9609375 12.76953125 C-35.64657941 5.59747768 -30.53731971 -0.13369963 -22.96875 -2.95703125 C-14.82512595 -4.77334228 -7.25714946 -4.15539879 0 0 Z " fill="#FAFBFC" transform="translate(800.83203125,259.43359375)"/>
<path d="M0 0 C4.62 0 9.24 0 14 0 C14.07436593 7.4015078 14.12870504 14.80279625 14.16479492 22.20458984 C14.17984619 24.72057892 14.20029181 27.23654192 14.22631836 29.75244141 C14.26286182 33.37669325 14.27976353 37.000597 14.29296875 40.625 C14.30845261 41.74302002 14.32393646 42.86104004 14.33988953 44.01293945 C14.34129961 50.61240476 14.28814697 57.29276927 9.65397644 62.51757812 C4.95408432 66.69013187 0.58114665 68.28153252 -5.625 68.1875 C-6.56601562 68.18105469 -7.50703125 68.17460937 -8.4765625 68.16796875 C-11 68 -11 68 -14 67 C-14 63.04 -14 59.08 -14 55 C-10.24023438 55.14648438 -10.24023438 55.14648438 -6.48046875 55.29296875 C-4.00059788 55.20729751 -4.00059788 55.20729751 -2.37199402 53.80131531 C-0.54477389 51.40232555 -0.60394681 49.88600662 -0.56762695 46.88598633 C-0.54783279 45.84513382 -0.52803864 44.80428131 -0.50764465 43.73188782 C-0.50125473 42.60993515 -0.49486481 41.48798248 -0.48828125 40.33203125 C-0.47033005 39.18208176 -0.45237885 38.03213226 -0.43388367 36.84733582 C-0.37963739 33.16909468 -0.34583829 29.49098436 -0.3125 25.8125 C-0.27933966 23.32094528 -0.24485122 20.82940785 -0.20898438 18.33789062 C-0.12390233 12.2253546 -0.05715903 6.11285835 0 0 Z " fill="#F9FAFB" transform="translate(294,259)"/>
<path d="M0 0 C4.90435198 2.45217599 7.9917626 6.30694457 9.9609375 11.38671875 C10.84678235 16.35211226 10.63036698 20.75071027 8.2734375 25.26171875 C5.60455952 28.86831061 2.9776837 31.37834565 -1.0390625 33.38671875 C-8.14762151 34.10582671 -13.36771596 33.90064763 -19.0390625 29.38671875 C-22.71745134 24.44993372 -24.47794886 19.60605966 -24.0390625 13.38671875 C-22.31829649 7.43350965 -18.97930592 3.93080642 -14.0390625 0.38671875 C-9.88372581 -1.69094959 -4.38081973 -1.31760287 0 0 Z " fill="#F3F6F8" transform="translate(526.0390625,349.61328125)"/>
<path d="M0 0 C5.56020308 1.92669937 9.39060625 5.7812125 12 11 C12.5072965 16.55531248 12.76260422 21.41830236 10.3125 26.5 C3.61620843 33.73923413 3.61620843 33.73923413 -1.390625 34.23828125 C-7.48116678 34.39636908 -11.2740193 34.26490941 -16 30 C-20.56732305 24.9389123 -21.30734392 21.13276172 -21.2109375 14.5 C-20.78477177 9.44914691 -18.66920997 6.39914281 -14.9375 3.1875 C-9.96989413 -0.51178096 -6.09398897 -0.6578219 0 0 Z " fill="#F5F7F9" transform="translate(398,349)"/>
<path d="M0 0 C4.29 0 8.58 0 13 0 C13 22.44 13 44.88 13 68 C8.71 68 4.42 68 0 68 C0 45.56 0 23.12 0 0 Z " fill="#FEFEFE" transform="translate(218,239)"/>
<path d="M0 0 C1.32 0.66 2.64 1.32 4 2 C4.33 10.58 4.66 19.16 5 28 C3.35 28.66 1.7 29.32 0 30 C0.33 28.35 0.66 26.7 1 25 C-0.19625 24.855625 -1.3925 24.71125 -2.625 24.5625 C-6.1005158 24.12960657 -9.54950034 23.60383744 -13 23 C-13.61875 23.804375 -14.2375 24.60875 -14.875 25.4375 C-17 28 -17 28 -19 29 C-24.25279338 29.34444547 -27.82634624 29.57741751 -32 26 C-35.52633066 21.01449804 -35.84867802 15.90344159 -35 10 C-33.77235703 6.56889528 -32.10686137 3.90920756 -29.25 1.5625 C-25.01447791 0.50361948 -21.03191756 -0.15313465 -17.1484375 2.05078125 C-15.5 3.375 -15.5 3.375 -13 6 C-13 6.66 -13 7.32 -13 8 C-12.30132813 7.71125 -11.60265625 7.4225 -10.8828125 7.125 C-9.97273437 6.75375 -9.06265625 6.3825 -8.125 6 C-7.22007812 5.62875 -6.31515625 5.2575 -5.3828125 4.875 C-3 4 -3 4 -1 4 C-0.67 2.68 -0.34 1.36 0 0 Z " fill="#10396E" transform="translate(810,267)"/>
<path d="M0 0 C1.06671952 3.20015856 0.94845472 4.88544294 0.5625 8.1875 C0.46066406 9.08855469 0.35882812 9.98960937 0.25390625 10.91796875 C0.17011719 11.60503906 0.08632813 12.29210937 0 13 C-0.67546875 13.02578125 -1.3509375 13.0515625 -2.046875 13.078125 C-7.67371772 13.35326411 -7.67371772 13.35326411 -12.5625 15.875 C-15.20755989 19.78508853 -15.18025438 23.24575544 -15.31640625 27.85546875 C-15.33718735 28.51710526 -15.35796844 29.17874176 -15.37937927 29.86042786 C-15.44464727 31.96934852 -15.50365344 34.07839135 -15.5625 36.1875 C-15.60570689 37.61915315 -15.64932188 39.05079404 -15.69335938 40.48242188 C-15.80107185 43.98815796 -15.90031308 47.49398975 -16 51 C-20.29 51 -24.58 51 -29 51 C-29 34.5 -29 18 -29 1 C-24.71 1 -20.42 1 -16 1 C-15.67 2.65 -15.34 4.3 -15 6 C-14.05125 5.195625 -13.1025 4.39125 -12.125 3.5625 C-7.9899898 0.05673048 -5.491217 -0.1016892 0 0 Z " fill="#FAFBFC" transform="translate(517,256)"/>
<path d="M0 0 C2.31 0 4.62 0 7 0 C10.3 7.59 13.6 15.18 17 23 C18.67941176 20.48088237 19.77129931 18.35482128 20.91015625 15.5859375 C21.26013672 14.74289062 21.61011719 13.89984375 21.97070312 13.03125 C22.33099609 12.1546875 22.69128906 11.278125 23.0625 10.375 C23.78032447 8.63189349 24.5002642 6.88965604 25.22265625 5.1484375 C25.53984619 4.37677246 25.85703613 3.60510742 26.18383789 2.81005859 C27 1 27 1 28 0 C30.31 0 32.62 0 35 0 C35 11.22 35 22.44 35 34 C33.02 34 31.04 34 29 34 C28.505 24.1 28.505 24.1 28 14 C27.48050781 15.35996094 26.96101562 16.71992188 26.42578125 18.12109375 C25.7223897 19.89364044 25.0179057 21.6657539 24.3125 23.4375 C23.97283203 24.33533203 23.63316406 25.23316406 23.28320312 26.15820312 C22.93837891 27.01220703 22.59355469 27.86621094 22.23828125 28.74609375 C21.774823 29.93223267 21.774823 29.93223267 21.30200195 31.14233398 C20 33 20 33 15 34 C12.03 26.74 9.06 19.48 6 12 C5.67 19.26 5.34 26.52 5 34 C3.35 34 1.7 34 0 34 C0 22.78 0 11.56 0 0 Z " fill="#ECF0F3" transform="translate(545,349)"/>
<path d="M0 0 C38.58338606 -0.02286491 77.16677111 -0.04049748 115.75016257 -0.05106533 C120.30031998 -0.05231611 124.85047738 -0.05361042 129.40063477 -0.05493164 C130.75947571 -0.05532511 130.75947571 -0.05532511 132.14576799 -0.05572652 C146.83380934 -0.06008353 161.52184679 -0.06797124 176.20988583 -0.0771528 C191.26956567 -0.08648849 206.32924347 -0.09205543 221.38892609 -0.09408849 C230.68928956 -0.0954639 239.98964203 -0.09981542 249.29000212 -0.10791647 C255.6586511 -0.11318288 262.02729436 -0.11480453 268.39594536 -0.11350138 C272.07598603 -0.11285783 275.75600741 -0.11387734 279.43604469 -0.11920547 C283.41626833 -0.12492649 287.3964664 -0.12300115 291.37669373 -0.12025452 C292.55273822 -0.12316736 293.72878271 -0.1260802 294.94046491 -0.12908131 C296.52665478 -0.12609474 296.52665478 -0.12609474 298.14488888 -0.12304783 C299.06495124 -0.12342755 299.9850136 -0.12380727 300.93295664 -0.1241985 C303 0 303 0 304 1 C304.08726223 2.78071246 304.10699041 4.5648314 304.09765625 6.34765625 C304.09443359 7.42724609 304.09121094 8.50683594 304.08789062 9.61914062 C304.07951172 10.75544922 304.07113281 11.89175781 304.0625 13.0625 C304.05798828 14.20267578 304.05347656 15.34285156 304.04882812 16.51757812 C304.03699747 19.34510351 304.0205141 22.1725264 304 25 C303.67 25 303.34 25 303 25 C302.67 17.74 302.34 10.48 302 3 C202.01 2.67 102.02 2.34 -1 2 C-0.67 1.34 -0.34 0.68 0 0 Z " fill="#02103B" transform="translate(362,762)"/>
<path d="M0 0 C16.42307692 0 16.42307692 0 21.9375 4.625 C23.6502453 8.4534895 23.21460282 12.03617644 22 16 C19.5625 18.5625 19.5625 18.5625 17 20 C16.34 20 15.68 20 15 20 C15.6496875 20.84304688 16.299375 21.68609375 16.96875 22.5546875 C17.81275117 23.66126681 18.65648749 24.76804815 19.5 25.875 C19.92925781 26.43058594 20.35851562 26.98617188 20.80078125 27.55859375 C24 31.7734375 24 31.7734375 24 34 C21.2890625 34.37109375 21.2890625 34.37109375 18 34 C16.14247825 32.00722181 14.81128263 30.32208035 13.375 28.0625 C10.31597421 23.18472979 10.31597421 23.18472979 5 21 C5 25.29 5 29.58 5 34 C3.35 34 1.7 34 0 34 C0 22.78 0 11.56 0 0 Z " fill="#F4F6F8" transform="translate(619,349)"/>
<path d="M0 0 C15 0 15 0 20 3 C22.66836411 7.00254616 22.8340238 10.29313299 22 15 C19.81840855 17.75569447 18.12822506 19.43588747 15 21 C15.6496875 21.85464844 16.299375 22.70929688 16.96875 23.58984375 C17.81262529 24.70563442 18.6563685 25.82152499 19.5 26.9375 C19.92925781 27.50146484 20.35851562 28.06542969 20.80078125 28.64648438 C24 32.88671875 24 32.88671875 24 34 C19.79004402 34.96478158 19.79004402 34.96478158 17 34 C9 25.52695652 9 25.52695652 9 21 C7.68 21 6.36 21 5 21 C5 25.29 5 29.58 5 34 C3.35 34 1.7 34 0 34 C0 22.78 0 11.56 0 0 Z " fill="#F5F7F8" transform="translate(420,349)"/>
<path d="M0 0 C3.3939513 2.81213107 4.97315955 4.88930827 5.47265625 9.37109375 C5.64292416 14.82706973 5.57457368 19.29640176 2.1875 23.8125 C-2.13768976 26.76149302 -5.63212079 27.4600474 -10.8125 26.8125 C-14.82126493 24.69466193 -17.18625513 23.04519214 -18.8125 18.8125 C-19.43910358 13.58108869 -19.96628955 7.8061259 -17.0625 3.1875 C-12.24571103 -1.89688835 -6.4603573 -2.72770641 0 0 Z " fill="#0F3466" transform="translate(552.8125,269.1875)"/>
<path d="M0 0 C3.82085981 2.10314871 6.35944958 4.96978937 8 9 C8.79356609 14.66832924 8.13589326 19.12194381 5 24 C2.95943261 26.4656856 2.13026076 26.95657975 -1 28 C-8.06408952 28.56968464 -8.06408952 28.56968464 -11.875 26.25 C-15.70023488 22.19975131 -16.31081558 19.11445254 -16.375 13.5625 C-16.40335938 12.45003906 -16.43171875 11.33757812 -16.4609375 10.19140625 C-15.82345945 5.77768109 -13.77310378 3.32982784 -10.25 0.6875 C-6.77872487 -0.3731674 -3.54897536 -0.67567031 0 0 Z " fill="#0E3569" transform="translate(680,268)"/>
<path d="M0 0 C3.70321039 2.90251625 5.99658216 4.72978238 6.734375 9.59375 C7.13475518 18.58006061 7.13475518 18.58006061 4.125 22.4375 C0.4525419 25.53868684 -1.93610829 26.63006336 -6.6875 27.125 C-10.2037656 26.75872233 -11.91195466 25.98792743 -14.6875 23.8125 C-18.59291856 18.39774094 -18.48303802 13.27296807 -17.6875 6.8125 C-16.47208773 3.55270195 -14.66195369 1.55174073 -11.875 -0.5625 C-7.63878597 -1.77284687 -4.04355691 -1.78668794 0 0 Z " fill="#103364" transform="translate(458.6875,269.1875)"/>
<path d="M0 0 C4.12025209 1.82057651 6.82371564 4.05044691 9 8 C9.82461347 12.95472882 10.2019077 17.78080366 7.75390625 22.30078125 C4.41245585 26.32552076 2.01194516 27.77223262 -3.3125 28.375 C-8.04467594 27.89376177 -9.74863737 26.4025888 -13 23 C-15.5950686 18.7535241 -15.70038082 13.84287715 -15 9 C-11.37090106 2.00102348 -7.99369733 -0.84144182 0 0 Z " fill="#103262" transform="translate(343,268)"/>
<path d="M0 0 C1.98 0 3.96 0 6 0 C7.71317185 4.51909826 9.42205713 9.03978476 11.12695312 13.56201172 C11.70780153 15.10087017 12.2898283 16.63928436 12.87304688 18.17724609 C13.71012029 20.38524077 14.54297244 22.59478731 15.375 24.8046875 C15.63748535 25.49432587 15.8999707 26.18396423 16.17041016 26.89450073 C18 31.77225659 18 31.77225659 18 34 C16.02 34 14.04 34 12 34 C11.34 31.36 10.68 28.72 10 26 C5.38 26 0.76 26 -4 26 C-4.66 28.64 -5.32 31.28 -6 34 C-7.98 34 -9.96 34 -12 34 C-9.8298389 26.30040211 -7.15907228 18.84781973 -4.3125 11.375 C-3.89677734 10.27542969 -3.48105469 9.17585938 -3.05273438 8.04296875 C-2.03818089 5.36081585 -1.02055394 2.67987417 0 0 Z " fill="#F0F3F5" transform="translate(262,349)"/>
<path d="M0 0 C1.98 0 3.96 0 6 0 C7.7154487 4.35743741 9.42425649 8.71739779 11.12695312 13.07983398 C11.70716309 14.56362037 12.28918376 16.04670004 12.87304688 17.52905273 C13.71180241 19.65946325 14.54402056 21.79232763 15.375 23.92578125 C15.63748535 24.58838455 15.8999707 25.25098785 16.17041016 25.93367004 C17.27483362 28.78572234 18 30.91109914 18 34 C16.35 34 14.7 34 13 34 C11.515 30.535 11.515 30.535 10 27 C3.07 26.505 3.07 26.505 -4 26 C-4.33 27.65 -4.66 29.3 -5 31 C-5.495 32.485 -5.495 32.485 -6 34 C-7.98 34 -9.96 34 -12 34 C-9.8298389 26.30040211 -7.15907228 18.84781973 -4.3125 11.375 C-3.89677734 10.27542969 -3.48105469 9.17585938 -3.05273438 8.04296875 C-2.03818089 5.36081585 -1.02055394 2.67987417 0 0 Z " fill="#F2F5F7" transform="translate(713,349)"/>
<path d="M0 0 C4.16636339 1.75913121 6.24086879 3.83363661 8 8 C8.54768238 12.92914139 8.54281153 14.98924749 6.1875 19.375 C4.00257308 21.99691231 2.39051093 23.74838374 -1.05078125 24.37109375 C-5.31020603 24.49615458 -8.12290024 24.39700198 -11.5 21.625 C-15.35809208 17.57400331 -15.33604587 14.90704804 -15.2890625 9.48046875 C-14.88350874 6.00037908 -13.55189308 4.33315939 -11 2 C-7.28612182 -0.47591878 -4.30417439 -0.53907468 0 0 Z " fill="#103060" transform="translate(523,354)"/>
<path d="M0 0 C3.08386629 2.58184155 4.37468082 4.4389416 5.05859375 8.3984375 C5.1848398 12.63139331 5.06100209 15.39342222 2.3125 18.75 C-1.54607848 22.42483665 -3.8967891 22.59320334 -9.0546875 22.53515625 C-12.42626856 22.10933373 -14.05270743 20.71522826 -16.3125 18.25 C-18.59576936 15.20564086 -18.73109308 12.0439921 -18.6328125 8.28125 C-17.98746059 4.18877448 -15.73692851 1.33060094 -12.5 -1.125 C-7.73869727 -2.48537221 -4.38912283 -2.31878187 0 0 Z " fill="#0E2C5B" transform="translate(400.3125,355.75)"/>
<path d="M0 0 C2.92402125 1.97201433 4.73531168 3.88421752 6.6875 6.8125 C6.6875 7.4725 6.6875 8.1325 6.6875 8.8125 C4.5625 9.625 4.5625 9.625 1.6875 9.8125 C0.2043932 8.55508336 -1.27630484 7.29327215 -2.70703125 5.9765625 C-4.47268004 4.5111985 -4.47268004 4.5111985 -7.875 4.25 C-11.83624737 4.89820411 -13.50049374 6.00049374 -16.3125 8.8125 C-18.18368456 12.55486911 -17.84217317 16.73713228 -17.3125 20.8125 C-16.05810607 23.93318733 -15.12353133 24.63251652 -12.3125 26.8125 C-9.13984234 27.59849295 -6.48360497 27.60957702 -3.3125 26.8125 C-0.24525543 24.49993996 -0.24525543 24.49993996 1.6875 21.8125 C3.3375 22.4725 4.9875 23.1325 6.6875 23.8125 C2.4875 31.2125 2.4875 31.2125 -2.3125 32.8125 C-7.55253023 33.31429253 -11.93956251 33.461525 -16.75 31.1875 C-21.94574662 26.37192997 -23.97897506 22.27750275 -24.41015625 15.2734375 C-24.20565359 10.11997044 -22.17882508 6.81210586 -18.875 3 C-13.05690512 -1.96666636 -7.16981092 -2.57030957 0 0 Z " fill="#F2F5F7" transform="translate(673.3125,350.1875)"/>
<path d="M0 0 C2.89579149 1.95297565 4.6872704 3.96601942 6.6875 6.8125 C5.375 8.3125 5.375 8.3125 3.6875 9.8125 C2.6975 9.8125 1.7075 9.8125 0.6875 9.8125 C-0.055 8.9875 -0.7975 8.1625 -1.5625 7.3125 C-4.13809878 4.51336059 -4.13809878 4.51336059 -7.8125 4.25 C-11.81788252 4.89372219 -13.47195826 5.97195826 -16.3125 8.8125 C-17.53735812 11.26221624 -17.47972808 12.95484461 -17.5 15.6875 C-17.51417969 16.55117188 -17.52835937 17.41484375 -17.54296875 18.3046875 C-17.29815087 20.96863802 -16.71392395 22.5521388 -15.3125 24.8125 C-12.33441941 27.10333123 -9.05159997 27.27720393 -5.3515625 27.21484375 C-1.75241877 26.50466788 0.138353 24.361647 2.6875 21.8125 C4.0075 22.4725 5.3275 23.1325 6.6875 23.8125 C4.55967873 27.84416135 2.71718968 30.59205875 -1.3125 32.8125 C-6.8958839 33.5888413 -11.66352732 33.57809446 -16.8125 31.1875 C-21.83850793 26.41279247 -23.97692913 22.30243702 -24.625 15.5625 C-24.13189793 9.64527512 -22.04751541 5.46288051 -17.75 1.375 C-12.22845361 -2.16445281 -6.0607387 -2.17271765 0 0 Z " fill="#F3F5F7" transform="translate(489.3125,350.1875)"/>
<path d="M0 0 C3.18425322 1.35500137 4.53956902 2.23261503 6.3125 5.1875 C6.539375 5.785625 6.76625 6.38375 7 7 C4.6875 7.625 4.6875 7.625 2 8 C1.01 7.34 0.02 6.68 -1 6 C-5.14776273 5.71337567 -5.14776273 5.71337567 -9 7 C-9 8.65 -9 10.3 -9 12 C-8.18015625 12.24234375 -7.3603125 12.4846875 -6.515625 12.734375 C-5.43796875 13.06953125 -4.3603125 13.4046875 -3.25 13.75 C-2.18265625 14.07484375 -1.1153125 14.3996875 -0.015625 14.734375 C3.18882724 16.07924874 4.83448001 17.30704657 7 20 C8.07294173 23.93411967 8.41979521 26.05546078 6.75 29.8125 C4.51378668 32.60776665 2.87245414 33.8803995 -0.70703125 34.37109375 C-10.12472546 34.57247841 -10.12472546 34.57247841 -13.6875 31.6875 C-16 29 -16 29 -17 26 C-14.1875 25.3125 -14.1875 25.3125 -11 25 C-10.54625 25.474375 -10.0925 25.94875 -9.625 26.4375 C-7.58654139 28.39755636 -6.7102847 28.26271931 -3.9375 28.3125 C0.00442887 28.4282022 0.00442887 28.4282022 2 26 C2.00592361 23.91859495 2.00592361 23.91859495 1 22 C-0.8823325 21.00264745 -0.8823325 21.00264745 -3.1875 20.5 C-7.47648235 19.24819175 -10.47062765 17.73526357 -14 15 C-15.55024464 11.89951072 -15.28992015 9.42105782 -15 6 C-10.89251125 -0.29814942 -7.12234964 -0.69005464 0 0 Z " fill="#F3F5F8" transform="translate(302,349)"/>
<path d="M0 0 C2.5625 1.75 2.5625 1.75 3.4375 3.9375 C3.47875 4.535625 3.52 5.13375 3.5625 5.75 C1.75 6.375 1.75 6.375 -0.4375 6.75 C-1.4275 6.09 -2.4175 5.43 -3.4375 4.75 C-7.02107241 4.49984127 -7.02107241 4.49984127 -10.4375 4.75 C-11.73383621 5.81645115 -11.73383621 5.81645115 -11.5 8.3125 C-11.479375 9.116875 -11.45875 9.92125 -11.4375 10.75 C-10.62925781 10.96914063 -9.82101562 11.18828125 -8.98828125 11.4140625 C0.84322463 14.33149368 0.84322463 14.33149368 3.875 17.5625 C5.5625 20.75 5.5625 20.75 5.625 24.375 C4.49275993 27.97152729 3.49064395 29.4429775 0.5625 31.75 C-3.40273014 33.73261507 -8.12677721 33.30250109 -12.4375 32.75 C-16.11280914 30.91234543 -18.1211893 28.69893209 -19.4375 24.75 C-17.7875 24.09 -16.1375 23.43 -14.4375 22.75 C-13.9425 23.41 -13.4475 24.07 -12.9375 24.75 C-9.3086728 27.65306176 -7.00537125 27.12441568 -2.4375 26.75 C-1.14116379 25.68354885 -1.14116379 25.68354885 -1.375 23.1875 C-1.395625 22.383125 -1.41625 21.57875 -1.4375 20.75 C-2.01757812 20.57984375 -2.59765625 20.4096875 -3.1953125 20.234375 C-8.23367028 18.67132011 -12.25798055 16.98912757 -16.4375 13.75 C-18.06199144 10.50101712 -18.12672651 7.24966473 -17.4375 3.75 C-12.34913461 -2.35603846 -7.24037429 -2.63286338 0 0 Z " fill="#F3F5F7" transform="translate(364.4375,350.25)"/>
<path d="M0 0 C6.6 0 13.2 0 20 0 C20 1.65 20 3.3 20 5 C15.05 5 10.1 5 5 5 C5 8.3 5 11.6 5 15 C9.29 15 13.58 15 18 15 C18 16.32 18 17.64 18 19 C13.71 19 9.42 19 5 19 C5 22.3 5 25.6 5 29 C9.95 29 14.9 29 20 29 C20 30.65 20 32.3 20 34 C13.4 34 6.8 34 0 34 C0 22.78 0 11.56 0 0 Z " fill="#F8F9FA" transform="translate(590,349)"/>
<path d="M0 0 C6.27 0 12.54 0 19 0 C19 1.65 19 3.3 19 5 C14.38 5 9.76 5 5 5 C5 8.3 5 11.6 5 15 C9.29 15 13.58 15 18 15 C18 16.32 18 17.64 18 19 C13.71 19 9.42 19 5 19 C5 22.3 5 25.6 5 29 C9.62 29 14.24 29 19 29 C19 30.65 19 32.3 19 34 C12.73 34 6.46 34 0 34 C0 22.78 0 11.56 0 0 Z " fill="#F8F9FA" transform="translate(319,349)"/>
<path d="M0 0 C12.25039333 -0.49496539 12.25039333 -0.49496539 15.86328125 1.890625 C18.62246411 4.61449839 18.95507612 5.40475853 19.25 9.3125 C18.98368917 13.24058469 18.43481646 14.95647943 16 18 C11.15058447 21.18518429 5.57705477 20.12124032 0 20 C0 13.4 0 6.8 0 0 Z " fill="#0F356A" transform="translate(614,251)"/>
<path d="M0 0 C0.66 0 1.32 0 2 0 C3.33802265 4.123494 4.66962301 8.24903352 6 12.375 C6.3815625 13.550625 6.763125 14.72625 7.15625 15.9375 C7.69765625 17.61972656 7.69765625 17.61972656 8.25 19.3359375 C8.75273437 20.89127197 8.75273437 20.89127197 9.265625 22.47802734 C10 25 10 25 10 27 C4.06 27 -1.88 27 -8 27 C-6.68764148 20.63569826 -4.98780585 14.57878972 -2.875 8.4375 C-2.59785156 7.61958984 -2.32070312 6.80167969 -2.03515625 5.95898438 C-1.36094863 3.97123432 -0.68107796 1.98540651 0 0 Z " fill="#112F5E" transform="translate(180,255)"/>
<path d="M0 0 C1.65 0 3.3 0 5 0 C5 9.57 5 19.14 5 29 C9.62 29 14.24 29 19 29 C19 30.65 19 32.3 19 34 C12.73 34 6.46 34 0 34 C0 22.78 0 11.56 0 0 Z " fill="#FBFCFC" transform="translate(739,349)"/>
<path d="M0 0 C10.23 0 20.46 0 31 0 C30.67 0.99 30.34 1.98 30 3 C30.639375 3.2475 31.27875 3.495 31.9375 3.75 C34 5 34 5 35 6.875 C35 9 35 9 33.0625 11.25 C32.381875 11.8275 31.70125 12.405 31 13 C30 10 30 10 30.9375 7.8125 C31.288125 7.214375 31.63875 6.61625 32 6 C28.32305497 5.40756753 24.72907076 4.94148391 21 5 C19.31295807 6.30745749 17.64639965 7.64172029 16 9 C12.1936813 9.76590559 8.79187823 9.86980115 5 9 C2.5899687 7.01314336 1.1801531 4.88192083 0 2 C0 1.34 0 0.68 0 0 Z " fill="#103E71" transform="translate(829,287)"/>
<path d="M0 0 C2.20488035 1.57491454 2.93709776 2.66349286 3.75 5.25 C3.5923583 8.40283392 2.94275513 9.97569463 1.125 12.5625 C-2.23262696 14.94818231 -4.21788636 14.88664952 -8.25 14.25 C-11.25 12.1875 -11.25 12.1875 -13.25 9.25 C-13.31641554 5.39789873 -13.12229157 3.25151995 -10.5625 0.3125 C-6.88623316 -1.37659557 -3.81006783 -1.27002261 0 0 Z " fill="#F7F8FA" transform="translate(306.25,236.75)"/>
<path d="M0 0 C3 1.625 3 1.625 5 4 C5.33 5.98 5.66 7.96 6 10 C-1.26 10 -8.52 10 -16 10 C-13.06988896 1.20966687 -9.07602324 -1.61132297 0 0 Z " fill="#113867" transform="translate(268,267)"/>
<path d="M0 0 C3 1.625 3 1.625 5 4 C5.33 5.98 5.66 7.96 6 10 C-1.26 10 -8.52 10 -16 10 C-13.06988896 1.20966687 -9.07602324 -1.61132297 0 0 Z " fill="#0F356B" transform="translate(843,267)"/>
<path d="M0 0 C1.65 0 3.3 0 5 0 C5 11.22 5 22.44 5 34 C3.35 34 1.7 34 0 34 C0 22.78 0 11.56 0 0 Z " fill="#F9FAFB" transform="translate(688,349)"/>
<path d="M0 0 C9.9 0 19.8 0 30 0 C29.67 0.66 29.34 1.32 29 2 C28.29875 2.103125 27.5975 2.20625 26.875 2.3125 C23.94426147 3.01332878 23.05794189 3.64737773 20.8125 5.5 C16.5678865 8.66955855 12.25872933 9.59679659 7 9 C4.2034856 7.66376227 3.10005517 6.42314058 1 4 C0.67 2.68 0.34 1.36 0 0 Z " fill="#0F3363" transform="translate(252,287)"/>
<path d="M0 0 C8.57142857 -0.28571429 8.57142857 -0.28571429 12 2 C12.125 5.375 12.125 5.375 12 9 C10 11 10 11 7.6171875 11.1953125 C6.71226562 11.17210937 5.80734375 11.14890625 4.875 11.125 C2.461875 11.063125 2.461875 11.063125 0 11 C0 7.37 0 3.74 0 0 Z " fill="#0F2F60" transform="translate(624,354)"/>
<path d="M0 0 C7.38461538 -0.36923077 7.38461538 -0.36923077 10.5 1.5 C10.995 1.995 11.49 2.49 12 3 C11.74438677 5.3431213 11.40729228 7.67843403 11 10 C7.57067929 11.71466036 3.78283935 11.05404056 0 11 C0 7.37 0 3.74 0 0 Z " fill="#0C2858" transform="translate(425,354)"/>
<path d="M0 0 C0.33 0 0.66 0 1 0 C1.33 5.61 1.66 11.22 2 17 C3.32 16.67 4.64 16.34 6 16 C5.67 16.66 5.34 17.32 5 18 C4.77049681 20.204364 4.58924067 22.41392173 4.4375 24.625 C4.35371094 25.81351562 4.26992188 27.00203125 4.18359375 28.2265625 C4.12300781 29.14179688 4.06242187 30.05703125 4 31 C3.34 30.67 2.68 30.34 2 30 C1.98018066 30.77190674 1.96036133 31.54381348 1.93994141 32.33911133 C1.84478857 35.83058958 1.73506953 39.32146152 1.625 42.8125 C1.5940625 44.02744141 1.563125 45.24238281 1.53125 46.49414062 C1.49257813 47.65751953 1.45390625 48.82089844 1.4140625 50.01953125 C1.3826416 51.09307861 1.3512207 52.16662598 1.31884766 53.27270508 C1 56 1 56 -1 59 C-1.33 57.35 -1.66 55.7 -2 54 C-1.67 54 -1.34 54 -1 54 C-0.67 36.18 -0.34 18.36 0 0 Z " fill="#133868" transform="translate(309,258)"/>
<path d="M0 0 C2.97 0 5.94 0 9 0 C8.67 0.99 8.34 1.98 8 3 C8.639375 3.2475 9.27875 3.495 9.9375 3.75 C12 5 12 5 13 6.875 C13 9 13 9 11.0625 11.25 C10.381875 11.8275 9.70125 12.405 9 13 C8 10 8 10 8.9375 7.8125 C9.288125 7.214375 9.63875 6.61625 10 6 C6.32279936 5.40752634 2.72929031 4.94164695 -1 5 C-3.63624434 6.89229266 -3.63624434 6.89229266 -6 9 C-9.02857356 9.35599928 -11.96477702 9.2380567 -15 9 C-15 8.67 -15 8.34 -15 8 C-14.33613281 7.91363281 -13.67226563 7.82726562 -12.98828125 7.73828125 C-6.99914289 6.78526507 -3.74096295 5.86325184 0 1 C0 0.67 0 0.34 0 0 Z " fill="#0F3168" transform="translate(851,287)"/>
<path d="M0 0 C0 3.18840471 -0.60899326 4.23890391 -2 7 C-4.12109022 16.60493686 -3.09254138 27.21908789 -3 37 C-4.485 37.495 -4.485 37.495 -6 38 C-6.04937279 33.33692986 -6.08570627 28.67401127 -6.10986328 24.01074219 C-6.11993188 22.42380117 -6.13358767 20.83687875 -6.15087891 19.25 C-6.17509001 16.97130753 -6.18647422 14.69285994 -6.1953125 12.4140625 C-6.20563507 11.70255035 -6.21595764 10.99103821 -6.22659302 10.25796509 C-6.22699422 8.50368335 -6.12202209 6.75003291 -6 5 C-4.10646634 3.10646634 -2.15473199 1.5801368 0 0 Z " fill="#03255D" transform="translate(728,270)"/>
<path d="M0 0 C1.29088531 0.00033989 1.29088531 0.00033989 2.60784912 0.00068665 C3.52777649 0.0161705 4.44770386 0.03165436 5.39550781 0.04760742 C6.34427795 0.05185226 7.2930481 0.05609711 8.27056885 0.06047058 C11.29688047 0.07724535 14.32252292 0.11489561 17.34863281 0.15307617 C19.4020086 0.16812455 21.45539484 0.18181269 23.50878906 0.1940918 C28.53899429 0.227145 33.56870014 0.27891934 38.59863281 0.34057617 C38.59863281 0.67057617 38.59863281 1.00057617 38.59863281 1.34057617 C33.97863281 1.67057617 29.35863281 2.00057617 24.59863281 2.34057617 C24.59863281 2.67057617 24.59863281 3.00057617 24.59863281 3.34057617 C13.70863281 3.34057617 2.81863281 3.34057617 -8.40136719 3.34057617 C-3.90136719 -0.03442383 -3.90136719 -0.03442383 0 0 Z " fill="#203863" transform="translate(457.4013671875,466.659423828125)"/>
<path d="M0 0 C0.33 0 0.66 0 1 0 C1.33 1.65 1.66 3.3 2 5 C2.99 5.33 3.98 5.66 5 6 C5.27561917 8.26786642 5.51971457 10.53958279 5.75 12.8125 C5.88921875 14.07707031 6.0284375 15.34164063 6.171875 16.64453125 C6.11515625 17.75183594 6.0584375 18.85914063 6 20 C4.70264493 21.04625409 3.36733028 22.04701223 2 23 C1.30047511 25.95551526 1.30047511 25.95551526 1.25 29.1875 C1.19328125 30.27417969 1.1365625 31.36085938 1.078125 32.48046875 C1.05234375 33.31191406 1.0265625 34.14335937 1 35 C0.67 35 0.34 35 0 35 C0 23.45 0 11.9 0 0 Z " fill="#193E6D" transform="translate(422,272)"/>
<path d="M0 0 C0.33 0 0.66 0 1 0 C1 22.11 1 44.22 1 67 C-1.0737741 62.85245181 -1.22516336 61.2581681 -1.13525391 56.76269531 C-1.11508209 55.50169006 -1.09491028 54.24068481 -1.0741272 52.94146729 C-1.04182671 51.57034796 -1.00929984 50.19923396 -0.9765625 48.828125 C-0.95038289 47.42138285 -0.92511688 46.01462343 -0.90072632 44.60784912 C-0.83419726 40.91198808 -0.75527866 37.21649197 -0.67376709 33.52093506 C-0.59272758 29.7471717 -0.52342192 25.9731948 -0.453125 22.19921875 C-0.31355886 14.79922045 -0.1609017 7.3995684 0 0 Z M-5 60 C-4.67 60.66 -4.34 61.32 -4 62 C-3.34 62 -2.68 62 -2 62 C-1.67 62.99 -1.34 63.98 -1 65 C-1.66 65.66 -2.32 66.32 -3 67 C-4.4606285 64.35261084 -5 63.10551666 -5 60 Z " fill="#01184E" transform="translate(216,240)"/>
<path d="M0 0 C4.62 0 9.24 0 14 0 C14 0.33 14 0.66 14 1 C10.04 1 6.08 1 2 1 C2 8.92 2 16.84 2 25 C-1.05269846 26.52634923 -3.75845689 25.83794444 -7.125 25.5625 C-8.40632812 25.46066406 -9.68765625 25.35882813 -11.0078125 25.25390625 C-11.99523437 25.17011719 -12.98265625 25.08632813 -14 25 C-14 24.67 -14 24.34 -14 24 C-9.38 24 -4.76 24 0 24 C0 16.08 0 8.16 0 0 Z " fill="#011B54" transform="translate(614,283)"/>
<path d="M0 0 C2.40110008 4.46813406 3.59312702 9.13989335 5 14 C1.7 14 -1.6 14 -5 14 C-4.35799564 11.85301798 -3.71129254 9.70744047 -3.0625 7.5625 C-2.70285156 6.36753906 -2.34320312 5.17257812 -1.97265625 3.94140625 C-1 1 -1 1 0 0 Z " fill="#10275A" transform="translate(716,356)"/>
<path d="M0 0 C10.23 0 20.46 0 31 0 C31 0.33 31 0.66 31 1 C33.475 1.495 33.475 1.495 36 2 C36 2.33 36 2.66 36 3 C23.46 3 10.92 3 -2 3 C-1.34 2.67 -0.68 2.34 0 2 C0 1.34 0 0.68 0 0 Z " fill="#26436E" transform="translate(529,467)"/>
<path d="M0 0 C0.66 0 1.32 0 2 0 C3.32 4.29 4.64 8.58 6 13 C2.7 13 -0.6 13 -4 13 C-2.68 8.71 -1.36 4.42 0 0 Z " fill="#0A1846" transform="translate(264,357)"/>
<path d="M0 0 C10.56 0 21.12 0 32 0 C26 7 26 7 24 8 C25.875 4.125 25.875 4.125 27 3 C26.32420898 2.98018066 25.64841797 2.96036133 24.95214844 2.93994141 C21.88437956 2.84456762 18.81728002 2.73493835 15.75 2.625 C14.68652344 2.5940625 13.62304688 2.563125 12.52734375 2.53125 C11.50253906 2.49257813 10.47773438 2.45390625 9.421875 2.4140625 C8.47924805 2.3826416 7.53662109 2.3512207 6.56542969 2.31884766 C4 2 4 2 0 0 Z " fill="#020F3D" transform="translate(280,567)"/>
<path d="M0 0 C2.71097227 0.37392721 3.82000467 0.81357627 5.75 2.8125 C7 5 7 5 7 9 C-0.26 9 -7.52 9 -15 9 C-14.67 8.01 -14.34 7.02 -14 6 C-7.73 6 -1.46 6 5 6 C3.35 4.02 1.7 2.04 0 0 Z " fill="#0F2659" transform="translate(267,268)"/>
<path d="M0 0 C-0.33 0.99 -0.66 1.98 -1 3 C-16.84 3 -32.68 3 -49 3 C-49 2.67 -49 2.34 -49 2 C-48.4406778 1.98969254 -47.88135559 1.97938507 -47.30508423 1.96876526 C-41.4978642 1.8608119 -35.69080286 1.74620502 -29.88378906 1.62768555 C-27.71487744 1.58430081 -25.54593087 1.54262839 -23.37695312 1.50268555 C-20.26421565 1.44506861 -17.15165465 1.38134962 -14.0390625 1.31640625 C-13.065065 1.29969376 -12.0910675 1.28298126 -11.08755493 1.26576233 C-10.18677216 1.24581711 -9.28598938 1.22587189 -8.35791016 1.20532227 C-7.16544174 1.18200584 -7.16544174 1.18200584 -5.94888306 1.15821838 C-3.6876207 0.97463976 -2.28354148 0 0 0 Z " fill="#1D2E52" transform="translate(344,801)"/>
<path d="M0 0 C2.64465038 3.1254959 3.84414715 6.08788267 5 10 C5.99 10 6.98 10 8 10 C8.66 8.68 9.32 7.36 10 6 C11.85228404 9.70456808 10.04136984 14.13205488 9 18 C8.34 18 7.68 18 7 18 C5.82625827 15.56568361 4.66084237 13.12795818 3.5 10.6875 C3.16613281 9.99720703 2.83226562 9.30691406 2.48828125 8.59570312 C0 3.33984375 0 3.33984375 0 0 Z " fill="#0B1E4C" transform="translate(692,530)"/>
<path d="M0 0 C0.66 0 1.32 0 2 0 C2 0.66 2 1.32 2 2 C3.65 2 5.3 2 7 2 C5.68 2.33 4.36 2.66 3 3 C3 4.98 3 6.96 3 9 C4.65 9.33 6.3 9.66 8 10 C8 10.33 8 10.66 8 11 C5.36 11 2.72 11 0 11 C0 7.37 0 3.74 0 0 Z " fill="#1B3664" transform="translate(624,354)"/>
<path d="M0 0 C0.66 0.66 1.32 1.32 2 2 C-0.70615034 11.59453303 -0.70615034 11.59453303 -5 15 C-5.99 14.67 -6.98 14.34 -8 14 C-7.65066406 13.48050781 -7.30132813 12.96101563 -6.94140625 12.42578125 C-4.43322811 8.58180285 -2.69697357 5.60002557 -2 1 C-1.34 0.67 -0.68 0.34 0 0 Z " fill="#133369" transform="translate(703,285)"/>
<path d="M0 0 C0.66 0 1.32 0 2 0 C2.02708567 1.60407328 2.04643483 3.2082785 2.0625 4.8125 C2.07410156 5.70582031 2.08570313 6.59914063 2.09765625 7.51953125 C2 10 2 10 1 13 C1.66 13 2.32 13 3 13 C2.25 17.75 2.25 17.75 0 20 C-0.19594676 16.85463232 -0.3803401 13.70869386 -0.5625 10.5625 C-0.61857422 9.66466797 -0.67464844 8.76683594 -0.73242188 7.84179688 C-0.78076172 6.98779297 -0.82910156 6.13378906 -0.87890625 5.25390625 C-0.9260376 4.46314697 -0.97316895 3.6723877 -1.02172852 2.85766602 C-1 1 -1 1 0 0 Z " fill="#113C6D" transform="translate(518,255)"/>
<path d="M0 0 C0.99 0.66 1.98 1.32 3 2 C3 2.66 3 3.32 3 4 C3.66 4.33 4.32 4.66 5 5 C3.02 5 1.04 5 -1 5 C-1.33 4.01 -1.66 3.02 -2 2 C-3.65 2 -5.3 2 -7 2 C-7 3.65 -7 5.3 -7 7 C-6.34 7.33 -5.68 7.66 -5 8 C-6.32 7.67 -7.64 7.34 -9 7 C-9.1875 4.625 -9.1875 4.625 -9 2 C-5.53001271 -0.31332486 -4.07490752 -0.33957563 0 0 Z " fill="#0C1F50" transform="translate(301,354)"/>
<path d="M0 0 C2.43816585 -0.0809723 4.87364384 -0.14046972 7.3125 -0.1875 C8.34793945 -0.22520508 8.34793945 -0.22520508 9.40429688 -0.26367188 C14.55674183 -0.33834499 14.55674183 -0.33834499 16.98046875 1.51171875 C17.31691406 2.00285156 17.65335938 2.49398438 18 3 C15.37493198 3.02690844 12.75013827 3.04679404 10.125 3.0625 C9.37863281 3.07087891 8.63226562 3.07925781 7.86328125 3.08789062 C2.2265625 3.11328125 2.2265625 3.11328125 0 2 C0 1.34 0 0.68 0 0 Z " fill="#1E3B67" transform="translate(571,468)"/>
<path d="M0 0 C1 3 1 3 0.00390625 5.48046875 C-0.47175781 6.37378906 -0.94742187 7.26710938 -1.4375 8.1875 C-1.91058594 9.08855469 -2.38367188 9.98960937 -2.87109375 10.91796875 C-3.24363281 11.60503906 -3.61617188 12.29210937 -4 13 C-4.66 13 -5.32 13 -6 13 C-6.66 10.03 -7.32 7.06 -8 4 C-6.02 4.99 -6.02 4.99 -4 6 C-2.49440461 4.03617993 -1.10868317 2.21736634 0 0 Z " fill="#07123A" transform="translate(330,535)"/>
<path d="M0 0 C2.27024968 -0.08097324 4.54132075 -0.13917704 6.8125 -0.1875 C8.07707031 -0.22230469 9.34164062 -0.25710938 10.64453125 -0.29296875 C14 0 14 0 15.94921875 1.51171875 C16.29597656 2.00285156 16.64273438 2.49398438 17 3 C14.72975032 3.08097324 12.45867925 3.13917704 10.1875 3.1875 C8.29064453 3.23970703 8.29064453 3.23970703 6.35546875 3.29296875 C3 3 3 3 1.05078125 1.48828125 C0.70402344 0.99714844 0.35726562 0.50601562 0 0 Z " fill="#1D3661" transform="translate(608,447)"/>
<path d="M0 0 C2.5654594 2.5654594 2.54046087 4.47686668 3 8 C2.67 8 2.34 8 2 8 C1.67 13.28 1.34 18.56 1 24 C0.67 24 0.34 24 0 24 C0 16.08 0 8.16 0 0 Z " fill="#041247" transform="translate(550,359)"/>
<path d="M0 0 C0.66 0 1.32 0 2 0 C2 5.94 2 11.88 2 18 C1.67 18 1.34 18 1 18 C0.67 15.36 0.34 12.72 0 10 C-0.99 10.495 -0.99 10.495 -2 11 C-1.67 10.113125 -1.34 9.22625 -1 8.3125 C-0.08777857 5.29076653 0.18330958 3.11626294 0 0 Z " fill="#163B6A" transform="translate(571,365)"/>
<path d="M0 0 C2.38128631 4.76257261 2.24820202 6.78775758 2 12 C1.67 12.99 1.34 13.98 1 15 C0.01 15 -0.98 15 -2 15 C-1.34 10.05 -0.68 5.1 0 0 Z " fill="#081D51" transform="translate(536,361)"/>
<path d="M0 0 C0.33 0 0.66 0 1 0 C1 3.63 1 7.26 1 11 C0.01 10.67 -0.98 10.34 -2 10 C-2.33 11.32 -2.66 12.64 -3 14 C-3 10.7 -3 7.4 -3 4 C-2.67 4.99 -2.34 5.98 -2 7 C-1.34 7 -0.68 7 0 7 C0 4.69 0 2.38 0 0 Z " fill="#123D71" transform="translate(759,274)"/>
<path d="M0 0 C3.11198065 1.49836105 6.0534615 3.19933758 9 5 C8.67 6.32 8.34 7.64 8 9 C8 8.34 8 7.68 8 7 C7.4225 6.731875 6.845 6.46375 6.25 6.1875 C3.94449957 4.97070811 1.97943808 3.69666121 0 2 C0 1.34 0 0.68 0 0 Z " fill="#19376B" transform="translate(687,256)"/>
<path d="M0 0 C2.32590854 3.63423209 2.16265833 6.77088331 2 11 C1.67 10.34 1.34 9.68 1 9 C0.01 8.67 -0.98 8.34 -2 8 C-1.125 1.125 -1.125 1.125 0 0 Z " fill="#153263" transform="translate(716,356)"/>
<path d="M0 0 C0.53625 0.2475 1.0725 0.495 1.625 0.75 C-0.80297311 3.17797311 -3.5049269 4.8782132 -6.375 6.75 C-7.035 6.42 -7.695 6.09 -8.375 5.75 C-8.375 5.09 -8.375 4.43 -8.375 3.75 C-3.23290173 -0.34030544 -3.23290173 -0.34030544 0 0 Z " fill="#12366A" transform="translate(806.375,301.25)"/>
<path d="M0 0 C0 3.19398323 -0.51014449 4.26859824 -2 7 C-2.37125 7.7425 -2.7425 8.485 -3.125 9.25 C-3.41375 9.8275 -3.7025 10.405 -4 11 C-4 10.01 -4 9.02 -4 8 C-4.66 8 -5.32 8 -6 8 C-5.75 5.625 -5.75 5.625 -5 3 C-3 1.75 -3 1.75 -1 1 C-0.67 0.67 -0.34 0.34 0 0 Z " fill="#153D70" transform="translate(728,270)"/>
<path d="M0 0 C2.24469451 0.91190715 3.42203265 1.99783754 5 3.8125 C3.14375 3.4721875 3.14375 3.4721875 1.25 3.125 C-1.86853111 2.71583102 -2.68127899 2.62923542 -5.5 4.25 C-5.995 4.765625 -6.49 5.28125 -7 5.8125 C-5.54907333 2.46420768 -4.16098689 -0.39009252 0 0 Z " fill="#0B2A5F" transform="translate(731,268.1875)"/>
<path d="M0 0 C1.08667969 0.29197266 1.08667969 0.29197266 2.1953125 0.58984375 C2.74960937 0.74582031 3.30390625 0.90179688 3.875 1.0625 C4.205 2.3825 4.535 3.7025 4.875 5.0625 C1.27552181 5.0625 0.62399383 4.22837393 -2.125 2.0625 C-3.44336295 1.36669733 -4.77291086 0.69025567 -6.125 0.0625 C-3.57797384 -1.21101308 -2.6967055 -0.73941925 0 0 Z " fill="#17386E" transform="translate(746.125,255.9375)"/>
<path d="M0 0 C0.99 0 1.98 0 3 0 C2.38461538 5.53846154 2.38461538 5.53846154 0.4375 7.875 C-0.036875 8.24625 -0.51125 8.6175 -1 9 C-1 5.72724974 -0.70074844 3.153368 0 0 Z " fill="#192E56" transform="translate(680,712)"/>
<path d="M0 0 C1.9451 2.91765 2.45276317 4.62537285 3 8 C1.125 7.875 1.125 7.875 -1 7 C-2.25 3.9375 -2.25 3.9375 -3 1 C-2.01 0.67 -1.02 0.34 0 0 Z " fill="#173668" transform="translate(723,376)"/>
<path d="M0 0 C0.99 0 1.98 0 3 0 C3.33 1.65 3.66 3.3 4 5 C2.02 5 0.04 5 -2 5 C-1.34 3.35 -0.68 1.7 0 0 Z " fill="#133663" transform="translate(264,364)"/>
<path d="M0 0 C0.66 0 1.32 0 2 0 C2.75 2.75 2.75 2.75 3 6 C1.0625 8.375 1.0625 8.375 -1 10 C-1.125 3.375 -1.125 3.375 0 0 Z " fill="#1B3462" transform="translate(180,255)"/>
<path d="M0 0 C0 0.33 0 0.66 0 1 C-2.31 1 -4.62 1 -7 1 C-7.33 2.32 -7.66 3.64 -8 5 C-8.66 5 -9.32 5 -10 5 C-10.33 4.01 -10.66 3.02 -11 2 C-7.374967 -1.625033 -4.81746234 -1.01907857 0 0 Z " fill="#19386A" transform="translate(514,270)"/>
<path d="M0 0 C0.33 0.66 0.66 1.32 1 2 C1.99 2.33 2.98 2.66 4 3 C4 3.99 4 4.98 4 6 C5.43750191 7.68798827 5.43750191 7.68798827 7 9 C4.28902773 8.62607279 3.17999533 8.18642373 1.25 6.1875 C0 4 0 4 0 0 Z " fill="#132045" transform="translate(635,649)"/>
<path d="M0 0 C0.33 0 0.66 0 1 0 C1.08153933 1.58246707 1.13943557 3.16616273 1.1875 4.75 C1.22230469 5.63171875 1.25710938 6.5134375 1.29296875 7.421875 C0.94923684 10.44671583 -0.00227459 11.75583602 -2 14 C-2.66 13.67 -3.32 13.34 -4 13 C-3.525625 11.96875 -3.05125 10.9375 -2.5625 9.875 C-1.15477612 6.61465838 -0.43164502 3.53948917 0 0 Z " fill="#091A4B" transform="translate(411,363)"/>
<path d="M0 0 C0.33 0.99 0.66 1.98 1 3 C-0.32 3.33 -1.64 3.66 -3 4 C-2.01 2.68 -1.02 1.36 0 0 Z M-4 5 C-4.33 5.66 -4.66 6.32 -5 7 C-7.4375 7.75 -7.4375 7.75 -10 8 C-10.66 7.34 -11.32 6.68 -12 6 C-9.07175348 5.02391783 -7.04386724 4.91773332 -4 5 Z " fill="#153564" transform="translate(284,300)"/>
<path d="M0 0 C1 2 1 2 0.125 4.9375 C-0.24625 5.948125 -0.6175 6.95875 -1 8 C-1.33 8.99 -1.66 9.98 -2 11 C-4 8 -4 8 -3.625 5.8125 C-3.41875 5.214375 -3.2125 4.61625 -3 4 C-2.34 4 -1.68 4 -1 4 C-0.67 2.68 -0.34 1.36 0 0 Z " fill="#113866" transform="translate(565,361)"/>
<path d="M0 0 C-2.16033504 1.12017372 -4.29327313 2.11444805 -6.5625 3 C-9.19059626 3.98451106 -9.19059626 3.98451106 -12 6 C-9.40401988 0.00927665 -6.20086134 -0.23399477 0 0 Z " fill="#071549" transform="translate(266,267)"/>
<path d="M0 0 C-0.33 2.64 -0.66 5.28 -1 8 C-1.99 8.33 -2.98 8.66 -4 9 C-4.6875 6.1875 -4.6875 6.1875 -5 3 C-3.41464922 0.73521317 -2.79754986 0 0 0 Z " fill="#123E72" transform="translate(652,267)"/>
<path d="M0 0 C0.33 0 0.66 0 1 0 C1 2.31 1 4.62 1 7 C0.01 7.33 -0.98 7.66 -2 8 C-2 7.34 -2 6.68 -2 6 C-3.98 6 -5.96 6 -8 6 C-8 5.67 -8 5.34 -8 5 C-5.36 5 -2.72 5 0 5 C0 3.35 0 1.7 0 0 Z " fill="#051A4E" transform="translate(517,264)"/>
<path d="M0 0 C3.82097239 0.53069061 6.06171403 1.49701566 9 4 C8.34 4.66 7.68 5.32 7 6 C6.01 5.34 5.02 4.68 4 4 C4 3.34 4 2.68 4 2 C2.68 1.34 1.36 0.68 0 0 Z " fill="#102353" transform="translate(629,474)"/>
<path d="M0 0 C2.64 0 5.28 0 8 0 C8 0.33 8 0.66 8 1 C6.5459375 1.433125 6.5459375 1.433125 5.0625 1.875 C1.89335797 2.64214682 1.89335797 2.64214682 1 5 C1.66 5.33 2.32 5.66 3 6 C2.01 6 1.02 6 0 6 C0 4.02 0 2.04 0 0 Z " fill="#143C67" transform="translate(597,370)"/>
<path d="M0 0 C-0.33 0.66 -0.66 1.32 -1 2 C-2.98985949 2.38932033 -4.99199544 2.71887936 -7 3 C-7.99 3.33 -8.98 3.66 -10 4 C-10 3.01 -10 2.02 -10 1 C-6.59437148 0.22157062 -3.49234244 -0.09978121 0 0 Z " fill="#113464" transform="translate(484,346)"/>
<path d="M0 0 C2 3 2 3 2 5 C1.34 5 0.68 5 0 5 C0 7.31 0 9.62 0 12 C-0.33 12 -0.66 12 -1 12 C-1.02698189 10.37509046 -1.04638757 8.75005367 -1.0625 7.125 C-1.07410156 6.22007812 -1.08570313 5.31515625 -1.09765625 4.3828125 C-1 2 -1 2 0 0 Z " fill="#133868" transform="translate(648,358)"/>
<path d="M0 0 C0.99 0.33 1.98 0.66 3 1 C2.34 1 1.68 1 1 1 C0.34 2.32 -0.32 3.64 -1 5 C-1.99 5 -2.98 5 -4 5 C-2.25 1.125 -2.25 1.125 0 0 Z " fill="#092053" transform="translate(514,355)"/>
<path d="M0 0 C1.32 0.33 2.64 0.66 4 1 C3.67 1.99 3.34 2.98 3 4 C3 4.99 3 5.98 3 7 C1 6 1 6 0 5 C-0.04063832 3.33382885 -0.042721 1.66611905 0 0 Z " fill="#153563" transform="translate(294,356)"/>
<path d="M0 0 C1.32 0 2.64 0 4 0 C3.34 1.65 2.68 3.3 2 5 C0.68 4.34 -0.64 3.68 -2 3 C-1.34 2.01 -0.68 1.02 0 0 Z " fill="#143060" transform="translate(290,309)"/>
<path d="M0 0 C0.66 0 1.32 0 2 0 C1.67 2.97 1.34 5.94 1 9 C0.34 9 -0.32 9 -1 9 C-1.09765625 2.84765625 -1.09765625 2.84765625 -1 1 C-0.67 0.67 -0.34 0.34 0 0 Z " fill="#1C3367" transform="translate(518,255)"/>
</svg>
